<?xml version="1.0" encoding="utf-8"?>
<!-- Generator: Adobe Illustrator 19.0.0, SVG Export Plug-In . SVG Version: 6.00 Build 0)  -->
<svg version="1.1" id="Capa_1" xmlns="http://www.w3.org/2000/svg" xmlns:xlink="http://www.w3.org/1999/xlink" x="0px" y="0px"
	 viewBox="0 0 384.5 232.7" style="enable-background:new 0 0 384.5 232.7;" xml:space="preserve">
<style type="text/css">
	.st0{fill:#FFFFFF;}
	.st1{fill:#FFE610;}
</style>
<g id="XMLID_586_">
	<g id="XMLID_587_">
		<path id="XMLID_588_" class="st0" d="M167.7,39.8c-0.5,0-0.9,0-1.2,0c-0.3,0-0.7,0-1.2,0V24.4h-0.2l-6.4,15.3h-2.1l-6.4-15.3h-0.2
			v15.5h-2.4V19.6h2.9l6.9,16.8h0.2l6.9-16.8h2.9V39.8z"/>
	</g>
	<g id="XMLID_590_">
		<path id="XMLID_591_" class="st0" d="M175.4,39.8c-0.5,0-0.9,0-1.3,0s-0.8,0-1.3,0V19.6h2.5V39.8z"/>
	</g>
	<g id="XMLID_593_">
		<path id="XMLID_594_" class="st0" d="M195.2,38c-1.6,1.5-3.7,2.3-6.2,2.3c-2.8,0-5-1-6.7-2.9c-1.7-1.9-2.5-4.5-2.5-7.7
			c0-3.2,0.8-5.8,2.5-7.7c1.7-1.9,3.9-2.9,6.7-2.9c2.2,0,4.1,0.6,5.6,1.7c1.5,1.2,2.5,2.8,2.8,4.8h-2.6c-0.4-1.4-1.1-2.4-2.1-3.1
			c-1-0.7-2.3-1.1-3.8-1.1c-2,0-3.6,0.7-4.8,2.2c-1.2,1.5-1.8,3.5-1.8,6c0,2.6,0.6,4.6,1.8,6.1c1.2,1.5,2.8,2.2,4.8,2.2
			c1.8,0,3.3-0.5,4.4-1.6c1.1-1.1,1.7-2.4,1.7-4.2v-0.5h-5.7v-2.2h8.2V32C197.6,34.5,196.8,36.5,195.2,38z"/>
	</g>
	<g id="XMLID_596_">
		<path id="XMLID_597_" class="st0" d="M204.6,19.6c0,1.8,0,3.3,0,4.6s0,2.6,0,3.9c0,1.3,0,2.8,0,4.6c0,1.5,0.5,2.8,1.4,3.8
			c1,1,2.3,1.5,4.1,1.5c1.8,0,3.1-0.5,4.1-1.5c1-1,1.4-2.3,1.4-3.8V19.6h2.5v13.3c0,2.2-0.7,3.9-2.1,5.3c-1.4,1.4-3.4,2.1-5.9,2.1
			c-2.5,0-4.5-0.7-5.9-2.1c-1.4-1.4-2.1-3.2-2.1-5.3V19.6H204.6z"/>
	</g>
	<g id="XMLID_599_">
		<path id="XMLID_600_" class="st0" d="M235.9,37.6c0,0.5,0,0.8,0,1.1s0,0.7,0,1.1h-12.5V19.6h12.5v2.3h-10v6.5h9.5v2.2h-9.5v7
			H235.9z"/>
	</g>
	<g id="XMLID_602_">
		<path id="XMLID_603_" class="st0" d="M252.8,37.6c0,0.5,0,0.8,0,1.1s0,0.7,0,1.1h-12.3V19.6h2.5v18H252.8z"/>
	</g>
	<g id="XMLID_605_">
		<path id="XMLID_606_" class="st0" d="M284.9,39.8c-0.5,0-0.9,0-1.2,0c-0.3,0-0.7,0-1.2,0V24.4h-0.2L276,39.7h-2.1l-6.4-15.3h-0.2
			v15.5H265V19.6h2.9l6.9,16.8h0.2l6.9-16.8h2.9V39.8z"/>
	</g>
	<g id="XMLID_608_">
		<path id="XMLID_609_" class="st0" d="M303.2,39.8c-0.4-1.2-0.7-2.1-1-2.9c-0.3-0.8-0.6-1.7-1-2.9h-8.1l-2,5.8h-2.7l7.5-20.2h2.5
			l7.5,20.2H303.2z M297.1,22.9c-0.4,1.2-0.8,2.3-1.1,3.2c-0.3,0.9-0.6,1.8-0.9,2.7c-0.3,0.9-0.7,2-1.1,3.2h6.6l-3.2-9H297.1z"/>
	</g>
	<g id="XMLID_612_">
		<path id="XMLID_613_" class="st0" d="M311.9,39.8c-0.5,0-0.9,0-1.2,0c-0.3,0-0.7,0-1.2,0V19.6h2.5l11,15.8h0.2V19.6h2.5v20.2h-2.5
			l-11-15.7h-0.2V39.8z"/>
	</g>
	<g id="XMLID_615_">
		<path id="XMLID_616_" class="st0" d="M329.4,35.1c0.5,0,0.9,0,1.3,0s0.7,0,1.3,0c0,0.8,0.3,1.5,0.9,2.1c0.6,0.5,1.4,0.8,2.3,0.8
			c1.1,0,1.9-0.3,2.5-1s0.9-1.6,0.9-2.8V19.6h2.5v14.6c0,1.9-0.5,3.4-1.6,4.5c-1,1.1-2.5,1.6-4.3,1.6c-1.7,0-3.1-0.5-4.2-1.4
			C329.9,37.9,329.4,36.7,329.4,35.1z"/>
	</g>
	<g id="XMLID_618_">
		<path id="XMLID_619_" class="st0" d="M361.5,22c1.6,1.9,2.5,4.5,2.5,7.7c0,3.2-0.8,5.8-2.5,7.7c-1.6,1.9-3.9,2.9-6.8,2.9
			c-2.9,0-5.2-1-6.8-2.9c-1.7-1.9-2.5-4.5-2.5-7.7c0-3.3,0.8-5.8,2.5-7.7c1.7-1.9,3.9-2.9,6.8-2.9C357.6,19.1,359.9,20.1,361.5,22z
			 M349.8,23.7c-1.2,1.5-1.8,3.5-1.8,6c0,2.5,0.6,4.5,1.8,6c1.2,1.5,2.8,2.3,4.9,2.3c2.1,0,3.7-0.8,4.9-2.3c1.2-1.5,1.8-3.5,1.8-6
			c0-2.5-0.6-4.5-1.8-6c-1.2-1.5-2.8-2.2-4.9-2.2C352.7,21.4,351.1,22.2,349.8,23.7z M356.1,17.7c-0.6,0-1.1,0-1.4,0
			c-0.4,0-0.9,0-1.4,0l4.3-4.2h3.2L356.1,17.7z"/>
	</g>
	<g id="XMLID_623_">
		<path id="XMLID_624_" class="st0" d="M370.9,39.8c-0.5,0-0.9,0-1.2,0s-0.7,0-1.2,0V19.6h2.5l11,15.8h0.2V19.6h2.5v20.2h-2.5
			l-11-15.7h-0.2V39.8z"/>
	</g>
	<path id="XMLID_626_" class="st1" d="M138.8,142.5V85.1l57.3-0.1v32.8h-4c-1.4,0-2.5,1.1-2.5,2.5s1.1,2.5,2.5,2.5h4v6.9h-5.9
		c-1.4,0-2.5,1.1-2.5,2.5s1.1,2.5,2.5,2.5h5.9v7.9H138.8z M201,122.8h6.9v6.9H201V122.8z M201,142.5v-7.9h6.9v7.9H201z M232.6,142.5
		h-19.8v-7.9h10.9c1.4,0,2.5-1.1,2.5-2.5s-1.1-2.5-2.5-2.5h-10.9v-6.9h19.8V142.5z M232.6,117.8h-19.8V95.1c0-1.4-1.1-2.5-2.5-2.5
		s-2.5,1.1-2.5,2.5v22.7H201V85.1l31.6,0V117.8z M346.2,80.3l-109.5,0.1c-0.4-0.4-1-0.6-1.6-0.6c-0.6,0-1.1,0.2-1.6,0.6l-32.5,0
		V65.5c0-1.4-1.1-2.5-2.5-2.5c-1.4,0-2.5,1.1-2.5,2.5v14.9l-57.3,0V0h-4.9v80.5L0,80.4v4.7l133.9,0.1v57.4h-19.8
		c-1.4,0-2.5,1.1-2.5,2.5c0,1.4,1.1,2.5,2.5,2.5h19.8v44.4c0,1.4,1.1,2.5,2.5,2.5c1.4,0,2.5-1.1,2.5-2.5v-44.4h57.3v31.6
		c0,1.4,1.1,2.5,2.5,2.5c1.4,0,2.5-1.1,2.5-2.5v-31.6h6.9c0,1.4,1.1,2.5,2.5,2.5c1.4,0,2.5-1.1,2.5-2.5h19.8v85.2h4.9v-85.2h21.7
		c1.4,0,2.5-1.1,2.5-2.5c0-1.4-1.1-2.5-2.5-2.5h-21.7v-19.8h71.1c1.4,0,2.5-1.1,2.5-2.5s-1.1-2.5-2.5-2.5h-71.1V85l108.7-0.1
		c1.4,0,2.5-1,2.5-2.3C348.7,81.2,347.6,80.3,346.2,80.3z"/>
	<g id="XMLID_633_">
		<path id="XMLID_634_" class="st0" d="M154.3,57h-0.8l-0.8-1.7h-3.5l-0.8,1.7h-0.8l3-6.5h0.7L154.3,57z M151,51.3l-1.5,3.3h3
			L151,51.3z"/>
		<path id="XMLID_637_" class="st0" d="M165.6,57l-1.9-2.5h-1.9V57h-0.7v-6.5h2.8c0.4,0,0.7,0,1,0.1c0.3,0.1,0.5,0.2,0.7,0.4
			s0.4,0.4,0.5,0.6c0.1,0.2,0.2,0.5,0.2,0.8c0,0.3,0,0.5-0.1,0.7c-0.1,0.2-0.2,0.4-0.4,0.6c-0.2,0.2-0.3,0.3-0.6,0.4
			c-0.2,0.1-0.5,0.2-0.7,0.2l2,2.7H165.6z M165.1,51.5c-0.3-0.2-0.7-0.3-1.2-0.3h-2v2.6h2c0.2,0,0.5,0,0.7-0.1
			c0.2-0.1,0.4-0.2,0.5-0.3c0.1-0.1,0.3-0.3,0.3-0.4c0.1-0.2,0.1-0.4,0.1-0.6C165.6,52.1,165.4,51.8,165.1,51.5z"/>
		<path id="XMLID_640_" class="st0" d="M175.9,57h-0.7v-5.8H173v-0.7h5.1v0.7h-2.2V57z"/>
		<path id="XMLID_642_" class="st0" d="M189.7,51.2h-4v2.2h3.5v0.7h-3.5v2.3h4V57H185v-6.5h4.7V51.2z"/>
		<path id="XMLID_644_" class="st0" d="M204.3,57.2l-1-1c-0.3,0.3-0.6,0.6-1,0.7c-0.3,0.2-0.7,0.3-1.2,0.3c-0.3,0-0.6,0-0.8-0.1
			c-0.3-0.1-0.5-0.2-0.6-0.4c-0.2-0.2-0.3-0.4-0.4-0.6c-0.1-0.2-0.2-0.5-0.2-0.7c0-0.4,0.1-0.8,0.4-1.1c0.3-0.3,0.7-0.6,1.2-0.8
			c-0.2-0.3-0.4-0.5-0.5-0.7c-0.1-0.2-0.2-0.5-0.2-0.7c0-0.2,0-0.4,0.1-0.6c0.1-0.2,0.2-0.4,0.3-0.5c0.1-0.1,0.3-0.2,0.5-0.3
			c0.2-0.1,0.4-0.1,0.7-0.1c0.2,0,0.4,0,0.6,0.1c0.2,0.1,0.4,0.2,0.5,0.3c0.1,0.1,0.2,0.3,0.3,0.5c0.1,0.2,0.1,0.4,0.1,0.6
			c0,0.4-0.1,0.8-0.4,1c-0.3,0.3-0.6,0.5-1.1,0.7l1.5,1.5c0.1-0.2,0.3-0.4,0.4-0.7c0.1-0.2,0.3-0.5,0.4-0.8l0.6,0.3
			c-0.1,0.3-0.3,0.6-0.4,0.9c-0.2,0.3-0.3,0.5-0.5,0.8l1.1,1.2L204.3,57.2z M201.1,53.9c-0.4,0.2-0.7,0.4-0.9,0.6
			c-0.2,0.2-0.3,0.5-0.3,0.8c0,0.2,0,0.3,0.1,0.5s0.2,0.3,0.3,0.4c0.1,0.1,0.3,0.2,0.4,0.3c0.2,0.1,0.3,0.1,0.5,0.1
			c0.3,0,0.6-0.1,0.9-0.2c0.3-0.2,0.5-0.4,0.8-0.6L201.1,53.9z M202.4,51.3c-0.2-0.2-0.4-0.3-0.7-0.3c-0.3,0-0.5,0.1-0.7,0.3
			c-0.2,0.2-0.3,0.4-0.3,0.7c0,0.1,0,0.2,0,0.3c0,0.1,0.1,0.2,0.1,0.3c0,0.1,0.1,0.2,0.2,0.3c0.1,0.1,0.2,0.2,0.3,0.4
			c0.4-0.1,0.7-0.3,0.9-0.5c0.2-0.2,0.3-0.4,0.3-0.7C202.6,51.7,202.5,51.4,202.4,51.3z"/>
		<path id="XMLID_648_" class="st0" d="M219.9,55.1c-0.2,0.4-0.4,0.7-0.7,1c-0.3,0.3-0.7,0.5-1.1,0.7c-0.4,0.2-0.9,0.3-1.4,0.3h-2.3
			v-6.5h2.3c0.5,0,1,0.1,1.4,0.2c0.4,0.2,0.8,0.4,1.1,0.7c0.3,0.3,0.5,0.6,0.7,1c0.2,0.4,0.3,0.8,0.3,1.3
			C220.1,54.2,220.1,54.7,219.9,55.1z M219.2,52.8c-0.1-0.3-0.3-0.6-0.5-0.8c-0.2-0.2-0.5-0.4-0.9-0.5c-0.3-0.1-0.7-0.2-1.1-0.2
			h-1.5v5.1h1.5c0.4,0,0.8-0.1,1.1-0.2c0.3-0.1,0.6-0.3,0.9-0.5c0.2-0.2,0.4-0.5,0.5-0.8c0.1-0.3,0.2-0.6,0.2-1
			C219.4,53.4,219.3,53.1,219.2,52.8z"/>
		<path id="XMLID_651_" class="st0" d="M228.1,50.5V57h-0.7v-6.5H228.1z"/>
		<path id="XMLID_653_" class="st0" d="M236.2,52.6c0,0.1,0.1,0.2,0.3,0.3c0.1,0.1,0.3,0.2,0.5,0.3c0.2,0.1,0.5,0.2,0.9,0.2
			c0.7,0.2,1.3,0.4,1.6,0.7c0.3,0.3,0.5,0.7,0.5,1.2c0,0.3-0.1,0.5-0.2,0.8c-0.1,0.2-0.3,0.4-0.5,0.6c-0.2,0.2-0.4,0.3-0.7,0.4
			c-0.3,0.1-0.6,0.1-0.9,0.1c-0.5,0-1-0.1-1.4-0.3c-0.4-0.2-0.8-0.4-1.2-0.8l0.5-0.5c0.3,0.3,0.7,0.5,1,0.7c0.3,0.2,0.7,0.2,1.2,0.2
			c0.4,0,0.8-0.1,1.1-0.3c0.3-0.2,0.4-0.5,0.4-0.8c0-0.2,0-0.3-0.1-0.4c0-0.1-0.1-0.2-0.3-0.3c-0.1-0.1-0.3-0.2-0.5-0.3
			c-0.2-0.1-0.5-0.2-0.8-0.2c-0.4-0.1-0.7-0.2-1-0.3c-0.3-0.1-0.5-0.2-0.7-0.4c-0.2-0.1-0.3-0.3-0.4-0.5c-0.1-0.2-0.1-0.4-0.1-0.7
			c0-0.3,0.1-0.5,0.2-0.7c0.1-0.2,0.3-0.4,0.4-0.6c0.2-0.2,0.4-0.3,0.7-0.4c0.3-0.1,0.5-0.1,0.9-0.1c0.5,0,0.9,0.1,1.2,0.2
			c0.4,0.1,0.7,0.3,1,0.6l-0.4,0.6c-0.3-0.2-0.6-0.4-0.9-0.5c-0.3-0.1-0.6-0.2-1-0.2c-0.2,0-0.4,0-0.6,0.1c-0.2,0.1-0.3,0.1-0.4,0.2
			s-0.2,0.2-0.3,0.3c-0.1,0.1-0.1,0.3-0.1,0.4C236.1,52.3,236.1,52.4,236.2,52.6z"/>
		<path id="XMLID_655_" class="st0" d="M251.7,51.2h-4v2.2h3.5v0.7h-3.5v2.3h4V57H247v-6.5h4.7V51.2z"/>
		<path id="XMLID_657_" class="st0" d="M263.6,50.5h0.7V57h-0.6l-4.2-5.3V57h-0.7v-6.5h0.7l4.1,5.2V50.5z M262.8,49.7
			c-0.1,0.1-0.3,0.2-0.5,0.2c-0.1,0-0.2,0-0.3-0.1c-0.1,0-0.2-0.1-0.3-0.1c-0.1,0-0.2-0.1-0.3-0.1c-0.1,0-0.2-0.1-0.3-0.1
			c-0.1,0-0.2,0-0.3,0.1c-0.1,0.1-0.1,0.2-0.2,0.3l-0.4-0.1c0.1-0.4,0.2-0.6,0.3-0.8c0.1-0.1,0.3-0.2,0.5-0.2c0.1,0,0.2,0,0.3,0.1
			c0.1,0,0.2,0.1,0.3,0.1c0.1,0,0.2,0.1,0.3,0.1s0.2,0.1,0.3,0.1c0.1,0,0.2,0,0.3-0.1c0.1-0.1,0.1-0.2,0.2-0.3l0.4,0.1
			C263,49.3,262.9,49.6,262.8,49.7z"/>
		<path id="XMLID_660_" class="st0" d="M277.8,55.1c-0.2,0.4-0.4,0.8-0.7,1.1c-0.3,0.3-0.6,0.6-1,0.7c-0.4,0.2-0.9,0.3-1.4,0.3
			c-0.5,0-0.9-0.1-1.4-0.3c-0.4-0.2-0.8-0.4-1-0.7s-0.5-0.7-0.7-1.1c-0.2-0.4-0.2-0.8-0.2-1.3c0-0.5,0.1-0.9,0.2-1.3
			s0.4-0.8,0.7-1.1c0.3-0.3,0.6-0.6,1-0.7c0.4-0.2,0.9-0.3,1.4-0.3c0.5,0,0.9,0.1,1.4,0.3c0.4,0.2,0.8,0.4,1,0.7
			c0.3,0.3,0.5,0.7,0.7,1.1c0.2,0.4,0.2,0.8,0.2,1.3C278.1,54.2,278,54.7,277.8,55.1z M277.1,52.7c-0.1-0.3-0.3-0.6-0.5-0.9
			c-0.2-0.2-0.5-0.4-0.8-0.6c-0.3-0.1-0.7-0.2-1-0.2c-0.4,0-0.7,0.1-1,0.2c-0.3,0.1-0.6,0.3-0.8,0.6c-0.2,0.2-0.4,0.5-0.5,0.8
			s-0.2,0.7-0.2,1c0,0.4,0.1,0.7,0.2,1c0.1,0.3,0.3,0.6,0.5,0.9c0.2,0.2,0.5,0.4,0.8,0.6c0.3,0.1,0.7,0.2,1,0.2c0.4,0,0.7-0.1,1-0.2
			c0.3-0.1,0.6-0.3,0.8-0.6c0.2-0.2,0.4-0.5,0.5-0.8s0.2-0.7,0.2-1C277.3,53.4,277.3,53.1,277.1,52.7z"/>
	</g>
</g>
</svg>
