<?xml version="1.0" encoding="utf-8"?>
<!-- Generator: Adobe Illustrator 19.0.0, SVG Export Plug-In . SVG Version: 6.00 Build 0)  -->
<svg version="1.1" id="Capa_1" xmlns="http://www.w3.org/2000/svg" xmlns:xlink="http://www.w3.org/1999/xlink" x="0px" y="0px"
	 viewBox="0 0 708.8 446.1" style="enable-background:new 0 0 708.8 446.1;" xml:space="preserve">
<style type="text/css">
	.st0{opacity:0.14;}
	.st1{fill:#666666;}
</style>
<g id="XMLID_1371_" class="st0">
	<g id="XMLID_18_">
		<path id="XMLID_19_" class="st1" d="M172.2,446.1l1,0c60.1-0.5,108.8-49.6,108.8-109.8c0-39.7-32-72-71.5-72.5v0l-1,0
			c-25.7,0.5-46.4,21.6-46.4,47.4c0,18.9,15.4,34.3,34.3,34.3c11.7,0,21.2-10,21.2-22.2c0-5-4.1-9.1-9.1-9.1s-9.1,4.1-9.1,9.1
			c0,2.1-1.4,4-3,4c-8.8,0-16-7.2-16-16c0-15.9,12.8-28.9,28.7-29.1c29.7,0.3,53.7,24.5,53.7,54.3c0,50.3-40.8,91.3-91.1,91.5
			c-85.2-0.3-154.4-69.7-154.4-155c0-140.3,114-254.4,254.2-254.6C384.1,18.4,489.1,61.9,568,140.8c79,79,122.6,184.2,122.6,296.1
			c0,5,4.1,9.1,9.1,9.1s9.1-4.1,9.1-9.1c0-116.8-45.4-226.6-127.9-309C498.7,45.7,389.3,0.3,272.9,0v0l-1,0
			C121.9,0.6,0,122.7,0,272.9C0,368,77.2,445.5,172.2,446.1L172.2,446.1z"/>
	</g>
</g>
</svg>
