<?xml version="1.0" encoding="utf-8"?>
<!-- Generator: Adobe Illustrator 19.0.0, SVG Export Plug-In . SVG Version: 6.00 Build 0)  -->
<svg version="1.1" id="Capa_1" xmlns="http://www.w3.org/2000/svg" xmlns:xlink="http://www.w3.org/1999/xlink" x="0px" y="0px"
	 viewBox="0 0 41.9 46.1" style="enable-background:new 0 0 41.9 46.1;" xml:space="preserve">
<style type="text/css">
	.st0{fill:#F8E618;}
</style>
<g id="XMLID_929_">
	<path id="XMLID_2724_" class="st0" d="M20.9,0.8c-0.2,1-0.5,2.4,0.2,3.3c0.2,0.2,0.7,0.3,0.9,0.1c0.9-0.6,1-2.1,1.1-3.1
		C23.2-0.2,21.2-0.4,20.9,0.8"/>
	<path id="XMLID_2722_" class="st0" d="M19.3,3.1C19.3,3.1,19.3,3.1,19.3,3.1c0-0.1,0-0.1,0-0.2c0,0,0,0,0,0c0-0.1,0-0.1,0-0.2
		c-0.1-0.3-0.3-0.6-0.7-0.6c-0.3,0-0.7,0.1-0.9,0.4c-0.4,0.6,0,1.5,0.7,1.8c0.4,0.2,0.8,0.1,1-0.2C19.6,3.9,19.6,3.4,19.3,3.1"/>
	<path id="XMLID_2721_" class="st0" d="M26.4,2.5c-0.3-0.2-0.7-0.1-0.9,0.1c-0.2,0.2-0.4,0.5-0.5,0.8c-0.2,0.3-0.1,0.9,0.3,1
		c0.4,0.2,0.8,0.1,1-0.3c0.2-0.3,0.4-0.5,0.5-0.8C26.8,3.1,26.7,2.7,26.4,2.5"/>
	<path id="XMLID_958_" class="st0" d="M23.6,42.2c-0.3-0.6-1-0.6-1.3,0c-0.4,0.9-0.4,2-0.3,2.9c0.1,1.2,1.9,1.2,1.9,0
		C23.9,44.2,23.9,43.1,23.6,42.2"/>
	<path id="XMLID_954_" class="st0" d="M20.3,41.5c-0.3-0.1-0.6,0-0.8,0.2c-0.2,0.3-0.4,0.5-0.4,0.8c-0.1,0.3,0.1,0.7,0.4,0.8
		c0.3,0.1,0.6,0,0.8-0.3c0.2-0.3,0.2-0.6,0.3-0.9C20.7,41.9,20.6,41.6,20.3,41.5"/>
	<path id="XMLID_953_" class="st0" d="M27.7,43.4L27,42.3c-0.1-0.3-0.5-0.4-0.8-0.2c-0.3,0.2-0.3,0.5-0.2,0.8
		c0.2,0.4,0.4,0.8,0.5,1.2c0.1,0.3,0.6,0.4,0.9,0.2C27.7,44.1,27.8,43.7,27.7,43.4"/>
	<path id="XMLID_952_" class="st0" d="M40.2,24.5c-1.8-1.6-4,1.6-3,3.2c1.1,1.8,3.7-0.3,2-1.4c-0.1-0.1-0.3-0.1-0.4,0
		c0,0-0.1,0-0.1,0.1c-0.1,0-0.1,0.2-0.1,0.3c0.1,0.3,0.6,0.8-0.4,0.9c-1,0.1,0-2,0.3-2.2c1.2-0.9,2,1.7,1.8,2.5
		c-0.6,2.2-4.9,2.2-4.2-0.4c0.1-0.3-0.3-0.5-0.5-0.2c-1,2.1,1.4,3.6,3.3,3.1c1.1-0.3,2.2-1.1,2.5-2.3C41.6,27,41,25.3,40.2,24.5"/>
	<path id="XMLID_951_" class="st0" d="M14.8,6c-0.1,0.6-0.4,0.9-0.8,1c-1,0.3-2.8,0.6-5.4,1.1c-0.3,4-0.4,7.3-0.4,9.9c0,1,0,2,0.1,3
		c0,0.3,0,0.5,0,0.7c-0.1,0.3-0.2,0.4-0.5,0.4c-0.5,0-0.8-0.2-1.2-0.6c-0.3-0.4-0.5-0.8-0.5-1.2c0-0.6-0.1-1.2-0.1-1.9
		c0-1.1,0-2.7,0.2-5c0.1-2.2,0.2-3.9,0.1-5c-0.4,0-1,0-1.8,0.1C3.7,8.7,3.1,8.7,2.8,8.7C2,8.7,1.4,8.5,0.9,8.1
		C0.7,7.7,0.6,7.5,0.6,7.5c0-0.1,0.1-0.2,0.2-0.4c0.5-0.2,1.6-0.4,3.1-0.5C5.3,6.4,6.3,6.2,7,5.8C7.5,6,8.2,6.1,8.9,6.1
		c0.7,0,1.4-0.1,2.1-0.3c0.2,0,0.7-0.1,1.5-0.4c0.6-0.1,1.1-0.2,1.4-0.2c0.3,0,0.4,0.1,0.4,0.4C14.6,5.6,14.8,5.8,14.8,6"/>
	<path id="XMLID_948_" class="st0" d="M21.6,21c0,0.1,0.1,0.1,0.1,0.2c0,0.4-0.4,0.7-1.1,0.9c-0.9-0.6-1.9-1.6-3.2-3
		c-1.4-1.5-2.5-2.5-3.2-3.1c0,0.4-0.1,1.5-0.2,3.3c-0.1,1.3-0.2,2.4-0.4,3.2c0,0-0.1,0-0.3,0.1c-0.2,0.1-0.3,0.1-0.4,0.1
		c-0.7-0.2-1.1-0.6-1.1-1.4c0-0.2,0-0.6,0.1-1c0.1-0.5,0.1-0.8,0.1-0.9c0.1-0.9,0.1-2,0.1-3.3l0-2.6c0-2.2,0.1-4,0.3-5.5
		c0.1-1,1.1-1.5,2.8-1.4c0.9,0,1.6,0.4,2.3,1.3c0.6,0.8,0.9,1.6,0.9,2.5c0,0.7-0.3,1.5-0.8,2.3c-0.5,0.7-1.1,1.2-1.8,1.6
		c-0.3,0.2-0.4,0.3-0.4,0.5c0,0.2,0.2,0.5,0.5,0.7c0.3,0.2,0.5,0.4,0.8,0.6c0,0,0.9,0.8,2.7,2.4C20.3,19.4,21.1,20.3,21.6,21
		 M16.4,10.3c0-0.3,0.1-0.5,0-0.8c-0.1-0.3-0.2-0.6-0.4-0.9c-0.2-0.3-0.6-0.4-1.1-0.4c-0.4,0-0.6,0.1-0.7,0.4
		c-0.1,0.4-0.1,0.9-0.1,1.4c0,0.2,0,0.7,0.1,1.6c0,0.7,0,1.2,0,1.6C15.5,12.2,16.2,11.3,16.4,10.3"/>
	<path id="XMLID_945_" class="st0" d="M27,12.5c-0.6,1.3-1.1,2.2-1.5,2.6c-0.7,0.7-1,1-1.1,1.1c-0.5,0.4-0.9,0.6-1.4,0.7
		C23,17.3,23,17.6,23,18.1c0,0.3,0,0.8,0.1,1.4c0.1,0.6,0.1,1.1,0.1,1.4c0,1.1-0.2,1.9-0.7,2.4l-0.7-0.4c-0.3-0.1-0.4-0.3-0.5-0.5
		c-0.2-1-0.3-2.2-0.3-3.5c0-0.8,0-2.1,0.1-3.8c0.1-1.7,0.1-2.9,0.1-3.8c0-1.2-0.1-2.4-0.3-3.4c-0.1,0-0.2,0-0.4-0.2
		c-0.1-0.2-0.2-0.3-0.3-0.4c0.1-0.5,0.2-0.8,0.4-0.8c0.2-0.1,0.7-0.1,1.5,0c2.1,0.3,3.6,1.2,4.7,2.7c0.3,0.5,0.5,1,0.5,1.6
		C27.4,11.4,27.3,11.9,27,12.5 M25.5,10.7c0.1-0.6-0.2-1.1-0.8-1.5c0,0-0.6-0.2-1.7-0.7c0.2,2.9,0.3,5,0.2,6.2
		C24.6,13.3,25.3,12,25.5,10.7"/>
	<path id="XMLID_944_" class="st0" d="M35.1,6.3c0,0.4-0.3,0.7-0.9,0.8c-0.7,0.2-1.2,0.3-1.4,0.5c-1.8,1.9-2.6,4.3-2.6,7.3
		c0,1.4,0.3,2.7,0.7,4c0.4,1,0.6,1.7,0.8,2c0.4,0.8,0.9,1.3,1.5,1.7c0.2,0.1,0.5,0.2,0.7,0.3c0.3,0.1,0.4,0.3,0.4,0.6
		c0,0.3-0.1,0.5-0.2,0.7c-0.2,0.2-0.3,0.3-0.5,0.2c-0.2,0-0.5-0.1-1-0.3c-0.8-0.4-1.6-1.4-2.5-2.8c-0.2-0.4-0.5-0.7-0.7-1.1
		c-0.2-0.4-0.4-0.8-0.5-1.1c-0.1-0.3-0.2-1.3-0.4-3.1c-0.1-0.6-0.1-1.1-0.1-1.6c0-2.8,0.8-5.2,2.4-7.2c0.9-1.2,1.9-1.7,3-1.8
		c0.4,0,0.9,0.1,1.2,0.4C35,5.8,35.1,6,35.1,6.3"/>
	<path id="XMLID_943_" class="st0" d="M41.7,17.9c0,0-1,0.7-2.8,2c-1.1,0.8-2,1.4-2.8,1.7c-0.1,0-0.2,0.1-0.3,0.1
		c-0.2,0-0.4-0.1-0.6-0.4c-0.3-0.4-0.4-0.6-0.5-0.6c0-1.4,0-3.4,0.2-5.9c0.2-2.7,0.3-4.6,0.3-5.8c0-0.8-0.1-1.6-0.1-2.3
		c0.2-0.2,0.5-0.3,0.8-0.3c0.6,0,1,0.2,1.1,0.7c0.1,1.3,0,3.3-0.1,5.9c-0.1,2.6-0.2,4.6-0.1,5.9c0.4-0.2,1-0.5,1.7-1
		c0.8-0.6,1.3-0.9,1.7-1.1c0.1,0,0.2,0,0.4-0.1c0.2,0,0.3-0.1,0.4-0.1c0.3,0,0.6,0.1,0.7,0.4C41.9,17.3,41.9,17.6,41.7,17.9"/>
	<path id="XMLID_941_" class="st0" d="M14.3,22.8c-0.1,0.6-0.4,0.9-0.8,1c-1,0.3-2.8,0.6-5.4,1c-0.3,4-0.5,7.3-0.5,9.9c0,1,0,2,0,3
		c0,0.3,0,0.5,0,0.7c-0.1,0.3-0.2,0.4-0.5,0.4c-0.5,0-0.8-0.2-1.1-0.6c-0.3-0.4-0.5-0.8-0.5-1.3c0-0.6,0-1.2,0-1.9
		c0-1.1,0.1-2.7,0.2-5c0.1-2.2,0.2-3.9,0.2-5c-0.4,0-1,0-1.8,0.1c-0.9,0.1-1.5,0.2-1.8,0.2c-0.8,0-1.4-0.2-1.9-0.6
		C0.1,24.3,0,24.1,0,24.1c0-0.1,0.1-0.2,0.2-0.4c0.5-0.2,1.6-0.3,3.1-0.5c1.4-0.1,2.4-0.4,3.1-0.8c0.6,0.2,1.2,0.3,1.9,0.3
		c0.7,0,1.4-0.1,2.1-0.3c0.2,0,0.7-0.1,1.5-0.3c0.6-0.1,1.1-0.2,1.4-0.1c0.3,0,0.4,0.1,0.4,0.4C14.1,22.4,14.3,22.5,14.3,22.8"/>
	<path id="XMLID_932_" class="st0" d="M20.8,37.9c0,0.1,0.1,0.1,0.1,0.2c0,0.4-0.4,0.6-1.1,0.8c-0.8-0.7-1.9-1.7-3.2-3
		c-1.4-1.5-2.4-2.6-3.1-3.2c0,0.4-0.1,1.5-0.3,3.3c-0.1,1.3-0.2,2.4-0.4,3.2c0,0-0.1,0-0.3,0.1c-0.2,0.1-0.3,0.1-0.4,0.1
		c-0.7-0.2-1.1-0.6-1.1-1.5c0-0.2,0-0.6,0.1-1c0.1-0.5,0.1-0.7,0.1-0.9c0.1-0.9,0.1-2,0.1-3.3v-2.6c0-2.2,0.1-4,0.4-5.5
		c0.2-1,1.1-1.4,2.8-1.4c0.9,0,1.6,0.5,2.2,1.3c0.6,0.8,0.9,1.6,0.9,2.5c0,0.7-0.3,1.5-0.8,2.2c-0.5,0.7-1.1,1.2-1.8,1.6
		c-0.3,0.2-0.4,0.3-0.4,0.5c0,0.2,0.2,0.5,0.5,0.7c0.3,0.2,0.5,0.4,0.8,0.6c0,0,0.9,0.8,2.6,2.4C19.6,36.2,20.4,37.1,20.8,37.9
		 M15.8,27.1c0-0.3,0.1-0.5,0-0.8c0-0.3-0.2-0.6-0.4-0.9c-0.2-0.3-0.6-0.4-1.1-0.4c-0.4,0-0.6,0.1-0.7,0.4c-0.1,0.4-0.1,0.9-0.1,1.4
		c0,0.2,0,0.7,0.1,1.6c0,0.7,0,1.2,0,1.6C14.9,29,15.6,28,15.8,27.1"/>
	<path id="XMLID_931_" class="st0" d="M24.7,23.2c0,0.3-0.2,0.6-0.7,0.8c-0.1,0.1-0.3,0.1-0.4,0C23.4,24,23.3,24,23.2,24
		c-0.1,0-0.2,0-0.3,0.1c-0.9,0.9-1.3,1.9-1.3,3.2c0,0.5,0.1,0.9,0.2,1.3c0.1,0.2,0.7,1.4,1.8,3.7c0.8,1.5,1.1,2.8,1.1,3.9
		c0,0.9-0.2,1.7-0.6,2.5c-0.1,0.3-0.5,0.6-1.1,1.1c-0.5,0.3-0.9,0.5-1.2,0.5c-0.1,0-0.3,0-0.4-0.1c-0.5-0.2-0.7-0.5-0.7-0.8
		c0-0.2,0.1-0.4,0.4-0.7c0.1-0.1,0.2-0.1,0.5-0.1c0.2,0,0.4-0.1,0.5-0.3c0.3-0.7,0.5-1.4,0.5-2.2c0-1-0.5-2.5-1.5-4.5
		c-1-2-1.5-3.5-1.5-4.7c0-1,0.2-1.8,0.6-2.6c0.4-0.9,1-1.5,1.8-1.9c0.4-0.2,0.7-0.3,1.1-0.3c0.7,0,1.2,0.2,1.5,0.6
		C24.6,22.9,24.7,23,24.7,23.2"/>
	<path id="XMLID_930_" class="st0" d="M34.4,24.3c0,1.4-0.3,3.7-0.7,6.7c-0.4,2.9-0.6,5.2-0.6,6.7c0,0.5,0,1,0,1.4
		c0,0.1,0,0.2-0.1,0.3c-0.1,0.1-0.2,0.2-0.3,0.2c-0.4,0-0.7,0-0.9-0.1c-0.6-0.4-0.9-1-0.9-2c0-0.2,0-0.5,0-0.9c0-0.4,0-0.7,0-0.9
		c0-0.3,0-0.8,0.1-1.5c0.1-0.7,0.1-1.2,0.1-1.5c-0.2,0-0.5,0-0.9-0.1c-0.4-0.1-0.7-0.1-0.8-0.1c-0.2,0-0.4,0-0.6,0.1
		c-0.4,1.3-0.6,3.1-0.7,5.6c-0.5,0.2-1.1,0.2-1.6-0.1C26.2,38,26,37.6,26,37.1c0-0.1,0-0.3,0-0.5c0-0.2,0-0.3,0-0.4
		c0-0.9,0.2-2.6,0.5-5.1c0.3-2.1,0.4-3.8,0.4-5.1c0-0.2,0.1-0.3,0.4-0.3c0.2,0,0.4-0.1,0.4-0.1c0.1,0.1,0.3,0.2,0.7,0.3
		c0.3,0.1,0.5,0.2,0.5,0.4c0.1,0.4,0.2,0.8,0.2,1.3c0,0.4-0.1,0.9-0.2,1.7C29,29.9,29,30.5,29,30.9c0.2,0.1,0.4,0.2,0.7,0.3
		c0.2,0,0.5,0,0.8,0c0.5,0,0.7,0,0.8,0c0.4-1.7,0.7-3.8,1.1-6.5c0.1-0.6,0.3-0.8,0.6-0.8C33.8,23.7,34.3,23.9,34.4,24.3"/>
</g>
</svg>
